<svg id="Layer_1" data-name="Layer 1" xmlns="http://www.w3.org/2000/svg" viewBox="0 0 400.36 271.99"><defs><style>.cls-1{fill:gray;}.cls-2{fill:#ccc;}.cls-3,.cls-5{fill:#f2f2f2;}.cls-4{stroke:#000;}.cls-4,.cls-5{stroke-linecap:round;stroke-miterlimit:10;}.cls-5{stroke:#f2f2f2;}</style></defs><title>cloudy</title><path class="cls-1" d="M387.15,217.7a65,65,0,0,0-1.28-16.38c-7.57-36.49-44.54-59.67-82.56-51.78s-62.71,43.87-55.14,80.36a65.27,65.27,0,0,0,3,10.17c-33.09,10-55.08,34.81-50.2,58.33,5.31,25.6,40.44,39.95,78.47,32.06,21.66-4.5,39.58-15.25,50-28.4,14.76,7.89,36,10.55,58.24,5.93,38-7.89,64.76-34,59.71-58.33C443.16,229.18,417.75,216.5,387.15,217.7Z" transform="translate(-197.66 -148)"/><path class="cls-2" d="M546.29,314a70.82,70.82,0,0,0,6.89-17.69c10.08-41.8-19.29-84.75-65.6-95.92s-92,13.66-102.11,55.47a71,71,0,0,0-1.83,12.1c-41.89-6.46-78.94,8.13-85.44,35.07-7.07,29.33,24.74,62.15,71,73.33,26.39,6.36,51.78,4.32,70.06-4,12.43,15.72,34.66,29.3,61.79,35.85,46.31,11.17,89.31-2.37,96-30.23C602.78,354.52,580.95,328.4,546.29,314Z" transform="translate(-197.66 -148)"/><path class="cls-3" d="M439.42,309.72a46.2,46.2,0,0,0,.13-15.49c-5.63-34.45-49.44-56-97.85-48.06s-83.09,42.25-77.46,76.7a45.78,45.78,0,0,0,2.67,9.59c-42.45,9.85-72.58,33.59-69,55.79,3.95,24.17,46.39,37.35,94.8,29.44,27.58-4.51,51.13-14.89,65.58-27.46,17.64,7.29,43.89,9.57,72.25,4.94,48.41-7.91,84.61-32.94,80.86-55.91C508.28,319.94,477.84,308.23,439.42,309.72Z" transform="translate(-197.66 -148)"/><ellipse class="cls-4" cx="139.16" cy="156.95" rx="3.2" ry="14.86"/><ellipse class="cls-4" cx="173.94" cy="154.26" rx="3.2" ry="14.86"/><path class="cls-4" d="M493.64,267.48c-.12,1.58-.19,3.28-.19,5.06,0,8.21,1.43,14.86,3.2,14.86s3.2-6.65,3.2-14.86a53.2,53.2,0,0,0-.89-10.27A62.14,62.14,0,0,1,493.64,267.48Z" transform="translate(-197.66 -148)"/><path class="cls-4" d="M463.35,256.33c.12,2,.19,4.17.19,6.43,0,10.43-1.43,18.89-3.2,18.89s-3.2-8.46-3.2-18.89A85.47,85.47,0,0,1,458,249.7,72.65,72.65,0,0,0,463.35,256.33Z" transform="translate(-197.66 -148)"/><ellipse class="cls-5" cx="113.27" cy="49.76" rx="1.68" ry="10.12"/><ellipse class="cls-5" cx="155.34" cy="56.7" rx="1.68" ry="10.12"/></svg>