<svg id="Layer_2" data-name="Layer 2" xmlns="http://www.w3.org/2000/svg" viewBox="0 0 357.47 224.09"><defs><style>.cls-1{fill:#fff;stroke:#ccc;stroke-miterlimit:10;stroke-width:3px;}.cls-2{fill:#ccc;}</style></defs><title>cloud face 2</title><path class="cls-1" d="M632.26,210.44c-2.84-19.88-15.29-37.61-34.61-45.85-20.36-8.68-43.06-4.57-59.65,8.73-9.78-26.79-33.88-45.76-62.08-45.76-36.87,0-66.75,32.38-66.75,72.33a77.42,77.42,0,0,0,4.66,26.56c-52.69,7.73-91.37,32.74-90.62,61.35.88,33.45,55.34,59.16,121.64,57.42a216,216,0,0,0,60.31-9.84c17.7,8.37,39.1,13.27,62.16,13.27,60.95,0,110.35-34.22,110.35-76.43C677.68,246.84,659.79,224.34,632.26,210.44Z" transform="translate(-321.71 -126.07)"/><ellipse class="cls-2" cx="154.47" cy="112.04" rx="8.73" ry="20.63"/><ellipse class="cls-2" cx="532.31" cy="238.12" rx="8.73" ry="20.63" transform="translate(-331.28 -103.41) rotate(-2.42)"/><polygon class="cls-2" points="194.97 136.19 172.69 136.19 183.83 161.93 194.97 136.19"/></svg>