<svg id="Layer_1" data-name="Layer 1" xmlns="http://www.w3.org/2000/svg" viewBox="0 0 305.09 297.06"><defs><style>.cls-1{fill:#fbb03b;stroke:#fbb03b;}.cls-1,.cls-3{stroke-linecap:round;stroke-miterlimit:10;}.cls-2{fill:#f2f2f2;}.cls-3{stroke:#231f20;}.cls-4{fill:#231f20;}</style></defs><title>mostly sunny</title><circle class="cls-1" cx="144.69" cy="147.5" r="100.25"/><polygon class="cls-1" points="6.14 84.72 76.42 73.78 50.76 140.11 6.14 84.72"/><polygon class="cls-1" points="0.93 183.95 45.26 128.32 71.27 194.53 0.93 183.95"/><polygon class="cls-1" points="28.41 244.42 58.02 179.75 99.23 237.73 28.41 244.42"/><polygon class="cls-1" points="60.6 22.83 127.41 47.25 72.85 92.9 60.6 22.83"/><polygon class="cls-1" points="135.77 0.96 175.95 57.51 104.51 62.89 135.77 0.96"/><polygon class="cls-1" points="218.29 18.76 218.29 89.89 156.69 54.33 218.29 18.76"/><polygon class="cls-1" points="269.52 69.43 237.47 132.93 198.5 73.42 269.52 69.43"/><polygon class="cls-1" points="109.75 296.1 94.31 226.67 162.16 248.02 109.75 296.1"/><polygon class="cls-1" points="296.6 125.82 255.63 183.97 225.76 119.42 296.6 125.82"/><path class="cls-2" d="M521.24,321.65a47.08,47.08,0,1,0-92.18-4c-23,2.14-40.84,16-40.84,32.73,0,18.24,21.08,33,47.08,33,14.81,0,28-4.8,36.65-12.31,8.6,7.48,22.14,12.31,37.37,12.31,26,0,47.08-14.05,47.08-31.38C556.39,337.43,541.47,325.17,521.24,321.65Z" transform="translate(-251.31 -109.1)"/><ellipse class="cls-3" cx="460" cy="304.31" rx="12.08" ry="4.65" transform="translate(-241.1 514.41) rotate(-68.85)"/><ellipse class="cls-3" cx="489.33" cy="310.35" rx="12.08" ry="4.65" transform="translate(-227.99 545.63) rotate(-68.85)"/><ellipse class="cls-3" cx="469.36" cy="329.74" rx="1.4" ry="7.2" transform="matrix(0.25, -0.97, 0.97, 0.25, -220.1, 590.84)"/><path class="cls-3" d="M364.61,215.56l-.8-.6a96.11,96.11,0,0,0-1,14.24c0,18,4.52,32.54,10.1,32.54,4.27,0,7.93-8.56,9.4-20.65C376.4,232.57,370.47,224.09,364.61,215.56Z" transform="translate(-251.31 -109.1)"/><path class="cls-3" d="M437.41,215.56l.8-.6a96.11,96.11,0,0,1,1,14.24c0,18-4.52,32.54-10.1,32.54-4.27,0-7.93-8.56-9.4-20.65C425.61,232.57,431.55,224.09,437.41,215.56Z" transform="translate(-251.31 -109.1)"/><path class="cls-4" d="M411.14,287.62a144,144,0,0,0-55.51-17c-1.92-.18-1.91,2.82,0,3a140.2,140.2,0,0,1,54,16.59c1.7.93,3.21-1.66,1.51-2.59Z" transform="translate(-251.31 -109.1)"/></svg>