<svg id="Layer_1" data-name="Layer 1" xmlns="http://www.w3.org/2000/svg" viewBox="0 0 236.3 209.96"><defs><style>.cls-1{fill:#ff0;stroke:#ff0;}.cls-1,.cls-2,.cls-4{stroke-linecap:round;stroke-miterlimit:10;}.cls-2{fill:#0071bc;stroke:#0071bc;}.cls-3{fill:#999;}.cls-4{stroke:#000;}.cls-5{fill:#231f20;}</style></defs><title>stormy</title><rect class="cls-1" x="265.59" y="262.41" width="23.99" height="80.17" transform="translate(123.39 548.51) rotate(-135)"/><rect class="cls-1" x="245.31" y="314.92" width="23.99" height="42.4" transform="translate(542.56 207.22) rotate(132.21)"/><polygon class="cls-1" points="95.75 208.97 110.27 176.67 128.05 194.45 95.75 208.97"/><path class="cls-2" d="M191.74,293.79a96.3,96.3,0,0,1-4.87,10.81c.8,6.69,3,11.5,5.65,11.5,2.81,0,5.15-5.5,5.79-12.9C196,300.17,193.82,297,191.74,293.79Z" transform="translate(-136.58 -164.16)"/><path class="cls-2" d="M208.68,316.11a96.3,96.3,0,0,1-4.87,10.81c.8,6.69,3,11.5,5.65,11.5,2.81,0,5.15-5.5,5.79-12.9C212.92,322.49,210.76,319.31,208.68,316.11Z" transform="translate(-136.58 -164.16)"/><path class="cls-2" d="M228,296.69a96.3,96.3,0,0,1-4.87,10.81c.8,6.69,3,11.5,5.65,11.5,2.81,0,5.15-5.5,5.79-12.9C232.29,303.07,230.13,299.9,228,296.69Z" transform="translate(-136.58 -164.16)"/><path class="cls-2" d="M186,325a96.3,96.3,0,0,1-4.87,10.81c.8,6.69,3,11.5,5.65,11.5,2.81,0,5.15-5.5,5.79-12.9C190.26,331.34,188.1,328.17,186,325Z" transform="translate(-136.58 -164.16)"/><path class="cls-2" d="M301.22,299.29a96.3,96.3,0,0,1-4.87,10.81c.8,6.69,3,11.5,5.65,11.5,2.81,0,5.15-5.5,5.79-12.9C305.45,305.67,303.29,302.5,301.22,299.29Z" transform="translate(-136.58 -164.16)"/><path class="cls-2" d="M327.94,292.51a82.05,82.05,0,0,1-4.87,9.67c.8,6,3,10.3,5.65,10.3,2.81,0,5.15-4.92,5.79-11.55C332.18,298.22,330,295.38,327.94,292.51Z" transform="translate(-136.58 -164.16)"/><path class="cls-2" d="M318.87,316.11A96.3,96.3,0,0,1,314,326.91c.8,6.69,3,11.5,5.65,11.5,2.81,0,5.15-5.5,5.79-12.9C323.11,322.49,320.95,319.31,318.87,316.11Z" transform="translate(-136.58 -164.16)"/><path class="cls-3" d="M372.79,257c.06-1,.09-2,.09-3a51.54,51.54,0,0,0-67.71-48.94,51.55,51.55,0,0,0-100.88,0A51.54,51.54,0,0,0,136.58,254c0,1,0,2,.09,3-.05.64-.09,1.29-.09,1.93a24.11,24.11,0,0,0,2.14,9.79A51.54,51.54,0,0,0,199,304.38a258.24,258.24,0,0,0,111.36,0,51.54,51.54,0,0,0,60.33-35.68,24.11,24.11,0,0,0,2.14-9.79C372.88,258.26,372.84,257.62,372.79,257Z" transform="translate(-136.58 -164.16)"/><path class="cls-4" d="M282.14,230.13a34.89,34.89,0,0,0-.5,5.95c0,9,3.22,16.29,7.2,16.29s7.2-7.29,7.2-16.29c0-5.85-1.37-11-3.41-13.83C289.18,224.94,285.67,227.55,282.14,230.13Z" transform="translate(-136.58 -164.16)"/><path class="cls-4" d="M232.65,230.13a34.89,34.89,0,0,1,.5,5.95c0,9-3.22,16.29-7.2,16.29s-7.2-7.29-7.2-16.29c0-5.85,1.37-11,3.41-13.83C225.61,224.94,229.11,227.55,232.65,230.13Z" transform="translate(-136.58 -164.16)"/><path d="M234.61,257.18c-6.73-7.21-15.53-11.37-25.47-9.73-1.9.31-1.09,3.21.8,2.89,8.88-1.47,16.61,2.59,22.55,9,1.32,1.41,3.44-.71,2.12-2.12Z" transform="translate(-136.58 -164.16)"/><path d="M284.6,258.31c5.94-6.36,13.67-10.42,22.55-9,1.89.31,2.7-2.58.8-2.89-9.94-1.64-18.74,2.52-25.47,9.73-1.32,1.41.8,3.54,2.12,2.12Z" transform="translate(-136.58 -164.16)"/><path class="cls-5" d="M263.5,271.45a62.2,62.2,0,0,0-22.28,5.2c-1.77.77-.24,3.35,1.51,2.59a58.1,58.1,0,0,1,20.77-4.79c1.92-.09,1.93-3.09,0-3Z" transform="translate(-136.58 -164.16)"/></svg>