<svg id="Layer_1" data-name="Layer 1" xmlns="http://www.w3.org/2000/svg" viewBox="0 0 380.17 280.16"><defs><style>.cls-1{fill:#fbb03b;stroke:#fbb03b;}.cls-1,.cls-3{stroke-linecap:round;stroke-miterlimit:10;}.cls-2{fill:#f2f2f2;}.cls-3{stroke:#231f20;}.cls-4{fill:#231f20;}</style></defs><title>sunny</title><circle class="cls-1" cx="191.78" cy="179.4" r="100.25"/><path class="cls-2" d="M337.24,321.65a47.08,47.08,0,1,0-92.18-4c-23,2.14-40.84,16-40.84,32.73,0,18.24,21.08,33,47.08,33,14.81,0,28-4.8,36.65-12.31,8.6,7.48,22.14,12.31,37.37,12.31,26,0,47.08-14.05,47.08-31.38C372.39,337.43,357.47,325.17,337.24,321.65Z" transform="translate(-204.22 -108.2)"/><path class="cls-2" d="M549.24,252.65a47.08,47.08,0,1,0-92.18-4c-23,2.14-40.84,16-40.84,32.73,0,18.24,21.08,33,47.08,33,14.81,0,28-4.8,36.65-12.31,8.6,7.48,22.14,12.31,37.37,12.31,26,0,47.08-14.05,47.08-31.38C584.39,268.43,569.47,256.17,549.24,252.65Z" transform="translate(-204.22 -108.2)"/><path class="cls-2" d="M352.24,166.65a47.08,47.08,0,1,0-92.18-4c-23,2.14-40.84,16-40.84,32.73,0,18.24,21.08,33,47.08,33,14.81,0,28-4.8,36.65-12.31,8.6,7.48,22.14,12.31,37.37,12.31,26,0,47.08-14.05,47.08-31.38C387.39,182.43,372.47,170.17,352.24,166.65Z" transform="translate(-204.22 -108.2)"/><ellipse class="cls-3" cx="295.75" cy="304.77" rx="2.03" ry="8.94" transform="translate(-316.98 80.51) rotate(-30)"/><path class="cls-4" d="M306,320a69.93,69.93,0,0,1-24.73,17.37c-2.44,1-.7,5.08,1.81,4.28A60.46,60.46,0,0,0,310,324c2.41-2.69-1.55-6.68-4-4Z" transform="translate(-204.22 -108.2)"/><ellipse class="cls-3" cx="318.31" cy="148.36" rx="8.94" ry="2.03" transform="translate(-112.93 308.11) rotate(-74.72)"/><ellipse class="cls-3" cx="300.24" cy="139.72" rx="8.94" ry="2.03" transform="translate(-117.9 284.31) rotate(-74.72)"/><ellipse class="cls-3" cx="282.47" cy="312.44" rx="2.03" ry="8.94" transform="translate(-322.6 74.89) rotate(-30)"/><path class="cls-4" d="M328.61,163.08c-12.27,8.65-27,2.29-39.39-2.68-2.76-1.11-4.66,3.46-2,4.8,13.57,6.9,30.52,12.66,44.16,2.58,2.77-2,.14-6.73-2.74-4.7Z" transform="translate(-204.22 -108.2)"/><ellipse class="cls-3" cx="485.22" cy="236.21" rx="2.03" ry="8.94" transform="translate(-257.32 166.06) rotate(-30)"/><ellipse class="cls-3" cx="496.25" cy="233.27" rx="2.03" ry="8.94" transform="translate(-254.37 171.18) rotate(-30)"/><path class="cls-4" d="M509.63,244.16a107.14,107.14,0,0,1-16,8.84c-1.91.87-.51,3.68,1.37,3.26a52.89,52.89,0,0,0,17.34-7.48c2.89-1.87.14-6.55-2.7-4.61Z" transform="translate(-204.22 -108.2)"/></svg>